<mxfile host="app.diagrams.net" modified="2024-01-09T15:23:45.453Z" agent="Mozilla/5.0 (Windows NT 10.0; Win64; x64) AppleWebKit/537.36 (KHTML, like Gecko) Chrome/120.0.0.0 Safari/537.36" etag="MotkNgiQNSeZPh9dUc8t" version="22.1.17" type="github">
  <diagram name="Page-1" id="g004UJIQQaxhIGtHMV1d">
    <mxGraphModel dx="695" dy="678" grid="1" gridSize="10" guides="1" tooltips="1" connect="1" arrows="1" fold="1" page="1" pageScale="1" pageWidth="3300" pageHeight="4681" math="0" shadow="0">
      <root>
        <mxCell id="0" />
        <mxCell id="1" parent="0" />
        <mxCell id="s0-FrGVsxFy7fqw6O0eB-6" style="edgeStyle=orthogonalEdgeStyle;rounded=0;orthogonalLoop=1;jettySize=auto;html=1;exitX=0.5;exitY=1;exitDx=0;exitDy=0;entryX=0.5;entryY=0;entryDx=0;entryDy=0;" edge="1" parent="1" source="s0-FrGVsxFy7fqw6O0eB-1" target="s0-FrGVsxFy7fqw6O0eB-2">
          <mxGeometry relative="1" as="geometry" />
        </mxCell>
        <mxCell id="s0-FrGVsxFy7fqw6O0eB-1" value="function login()" style="ellipse;whiteSpace=wrap;html=1;" vertex="1" parent="1">
          <mxGeometry x="75" y="10" width="120" height="40" as="geometry" />
        </mxCell>
        <mxCell id="s0-FrGVsxFy7fqw6O0eB-7" style="edgeStyle=orthogonalEdgeStyle;rounded=0;orthogonalLoop=1;jettySize=auto;html=1;exitX=0.5;exitY=1;exitDx=0;exitDy=0;entryX=0.5;entryY=0;entryDx=0;entryDy=0;" edge="1" parent="1" source="s0-FrGVsxFy7fqw6O0eB-2" target="s0-FrGVsxFy7fqw6O0eB-3">
          <mxGeometry relative="1" as="geometry" />
        </mxCell>
        <mxCell id="s0-FrGVsxFy7fqw6O0eB-2" value="array usernames[2]&lt;br&gt;for i = 1 to 2 then" style="rounded=1;whiteSpace=wrap;html=1;" vertex="1" parent="1">
          <mxGeometry x="75" y="60" width="120" height="60" as="geometry" />
        </mxCell>
        <mxCell id="s0-FrGVsxFy7fqw6O0eB-8" style="edgeStyle=orthogonalEdgeStyle;rounded=0;orthogonalLoop=1;jettySize=auto;html=1;exitX=0.5;exitY=1;exitDx=0;exitDy=0;entryX=0.5;entryY=0;entryDx=0;entryDy=0;" edge="1" parent="1" source="s0-FrGVsxFy7fqw6O0eB-3" target="s0-FrGVsxFy7fqw6O0eB-4">
          <mxGeometry relative="1" as="geometry" />
        </mxCell>
        <mxCell id="s0-FrGVsxFy7fqw6O0eB-3" value="username = Input&lt;br&gt;&quot;Player &quot;+i+&quot; - Enter your username&quot;" style="shape=parallelogram;perimeter=parallelogramPerimeter;whiteSpace=wrap;html=1;fixedSize=1;" vertex="1" parent="1">
          <mxGeometry x="55" y="130" width="160" height="60" as="geometry" />
        </mxCell>
        <mxCell id="s0-FrGVsxFy7fqw6O0eB-16" style="edgeStyle=orthogonalEdgeStyle;rounded=0;orthogonalLoop=1;jettySize=auto;html=1;exitX=0.5;exitY=1;exitDx=0;exitDy=0;entryX=0.5;entryY=0;entryDx=0;entryDy=0;" edge="1" parent="1" source="s0-FrGVsxFy7fqw6O0eB-4" target="s0-FrGVsxFy7fqw6O0eB-10">
          <mxGeometry relative="1" as="geometry" />
        </mxCell>
        <mxCell id="s0-FrGVsxFy7fqw6O0eB-4" value="password = Input&lt;br&gt;&quot;Player &quot;+i+&quot; -&amp;nbsp;&lt;br&gt;Enter your password&quot;" style="shape=parallelogram;perimeter=parallelogramPerimeter;whiteSpace=wrap;html=1;fixedSize=1;" vertex="1" parent="1">
          <mxGeometry x="55" y="200" width="160" height="60" as="geometry" />
        </mxCell>
        <mxCell id="s0-FrGVsxFy7fqw6O0eB-47" style="edgeStyle=orthogonalEdgeStyle;rounded=0;orthogonalLoop=1;jettySize=auto;html=1;exitX=0.5;exitY=1;exitDx=0;exitDy=0;entryX=0.5;entryY=0;entryDx=0;entryDy=0;" edge="1" parent="1" source="s0-FrGVsxFy7fqw6O0eB-10" target="s0-FrGVsxFy7fqw6O0eB-44">
          <mxGeometry relative="1" as="geometry" />
        </mxCell>
        <mxCell id="s0-FrGVsxFy7fqw6O0eB-10" value="&lt;div style=&quot;direction: ltr;&quot;&gt;&lt;span style=&quot;background-color: initial;&quot;&gt;password = hash(password)&lt;/span&gt;&lt;/div&gt;&lt;div style=&quot;direction: ltr;&quot;&gt;f = open(&quot;logins.txt&quot;)&lt;/div&gt;&lt;span style=&quot;white-space: pre;&quot;&gt;&lt;div style=&quot;direction: ltr;&quot;&gt;&lt;span style=&quot;background-color: initial; white-space: normal;&quot;&gt;found = False&lt;/span&gt;&lt;/div&gt;&lt;/span&gt;&lt;span style=&quot;white-space: pre;&quot;&gt;&lt;div style=&quot;direction: ltr;&quot;&gt;&lt;span style=&quot;background-color: initial; white-space: normal;&quot;&gt;for userandpass in f.readLine()&lt;/span&gt;&lt;/div&gt;&lt;/span&gt;&lt;span style=&quot;white-space: pre;&quot;&gt;&lt;div style=&quot;direction: ltr;&quot;&gt;&lt;span style=&quot;background-color: initial;&quot;&gt;&#x9;&lt;/span&gt;&lt;span style=&quot;background-color: initial; white-space: normal;&quot;&gt;[loginuser, loginpass] = &quot;,&quot;.split(userandpass)&lt;/span&gt;&lt;/div&gt;&lt;/span&gt;&lt;span style=&quot;white-space: pre;&quot;&gt;&lt;div style=&quot;direction: ltr;&quot;&gt;&lt;span style=&quot;background-color: initial;&quot;&gt;&#x9;&lt;/span&gt;if password == loginpass then&lt;/div&gt;&lt;div style=&quot;direction: ltr;&quot;&gt;&lt;span style=&quot;background-color: initial; white-space: normal;&quot;&gt;&lt;span style=&quot;white-space: pre;&quot;&gt;&#x9;&lt;/span&gt;&lt;span style=&quot;white-space: pre;&quot;&gt;&#x9;&lt;/span&gt;usernames[i - 1] = loginuser&lt;/span&gt;&lt;/div&gt;&lt;div style=&quot;direction: ltr;&quot;&gt;&lt;span style=&quot;background-color: initial; white-space: normal;&quot;&gt;&lt;span style=&quot;white-space: pre;&quot;&gt;&#x9;&lt;/span&gt;endif&lt;br&gt;&lt;/span&gt;&lt;/div&gt;&lt;/span&gt;&lt;span style=&quot;white-space: pre;&quot;&gt;&lt;div style=&quot;direction: ltr;&quot;&gt;&lt;span style=&quot;background-color: initial; white-space: normal;&quot;&gt;next userandpass&lt;/span&gt;&lt;/div&gt;&lt;div style=&quot;direction: ltr;&quot;&gt;&lt;span style=&quot;background-color: initial; white-space: normal;&quot;&gt;f.close()&lt;/span&gt;&lt;/div&gt;&lt;/span&gt;" style="rounded=0;whiteSpace=wrap;html=1;align=left;" vertex="1" parent="1">
          <mxGeometry x="10" y="280" width="300" height="150" as="geometry" />
        </mxCell>
        <mxCell id="s0-FrGVsxFy7fqw6O0eB-19" style="edgeStyle=orthogonalEdgeStyle;rounded=0;orthogonalLoop=1;jettySize=auto;html=1;exitX=0.5;exitY=1;exitDx=0;exitDy=0;entryX=0.5;entryY=0;entryDx=0;entryDy=0;" edge="1" parent="1" source="s0-FrGVsxFy7fqw6O0eB-13" target="s0-FrGVsxFy7fqw6O0eB-18">
          <mxGeometry relative="1" as="geometry" />
        </mxCell>
        <mxCell id="s0-FrGVsxFy7fqw6O0eB-13" value="next i&lt;br&gt;return usernames" style="rounded=0;whiteSpace=wrap;html=1;" vertex="1" parent="1">
          <mxGeometry x="85" y="537" width="110" height="30" as="geometry" />
        </mxCell>
        <mxCell id="s0-FrGVsxFy7fqw6O0eB-18" value="endfunction" style="ellipse;whiteSpace=wrap;html=1;" vertex="1" parent="1">
          <mxGeometry x="80" y="577" width="120" height="40" as="geometry" />
        </mxCell>
        <mxCell id="s0-FrGVsxFy7fqw6O0eB-52" style="edgeStyle=orthogonalEdgeStyle;rounded=0;orthogonalLoop=1;jettySize=auto;html=1;exitX=0.5;exitY=1;exitDx=0;exitDy=0;entryX=0.5;entryY=0;entryDx=0;entryDy=0;" edge="1" parent="1" source="s0-FrGVsxFy7fqw6O0eB-44" target="s0-FrGVsxFy7fqw6O0eB-13">
          <mxGeometry relative="1" as="geometry" />
        </mxCell>
        <mxCell id="s0-FrGVsxFy7fqw6O0eB-44" value="if found" style="rhombus;whiteSpace=wrap;html=1;" vertex="1" parent="1">
          <mxGeometry x="90" y="441" width="100" height="80" as="geometry" />
        </mxCell>
        <mxCell id="s0-FrGVsxFy7fqw6O0eB-54" value="" style="edgeStyle=orthogonalEdgeStyle;rounded=0;orthogonalLoop=1;jettySize=auto;html=1;exitX=1;exitY=0.5;exitDx=0;exitDy=0;entryX=1;entryY=0.25;entryDx=0;entryDy=0;" edge="1" parent="1" source="s0-FrGVsxFy7fqw6O0eB-44" target="s0-FrGVsxFy7fqw6O0eB-3">
          <mxGeometry relative="1" as="geometry">
            <mxPoint x="230" y="150" as="targetPoint" />
            <mxPoint x="190" y="490" as="sourcePoint" />
            <Array as="points">
              <mxPoint x="320" y="480" />
              <mxPoint x="320" y="146" />
            </Array>
          </mxGeometry>
        </mxCell>
        <mxCell id="s0-FrGVsxFy7fqw6O0eB-53" value="False" style="text;html=1;align=center;verticalAlign=middle;resizable=0;points=[];autosize=1;strokeColor=none;fillColor=none;" vertex="1" parent="1">
          <mxGeometry x="178" y="455" width="50" height="30" as="geometry" />
        </mxCell>
        <mxCell id="s0-FrGVsxFy7fqw6O0eB-55" value="True" style="text;html=1;align=center;verticalAlign=middle;resizable=0;points=[];autosize=1;strokeColor=none;fillColor=none;" vertex="1" parent="1">
          <mxGeometry x="141" y="516" width="50" height="30" as="geometry" />
        </mxCell>
        <mxCell id="s0-FrGVsxFy7fqw6O0eB-94" style="edgeStyle=orthogonalEdgeStyle;rounded=0;orthogonalLoop=1;jettySize=auto;html=1;exitX=0.5;exitY=1;exitDx=0;exitDy=0;entryX=0.5;entryY=0;entryDx=0;entryDy=0;" edge="1" parent="1" source="s0-FrGVsxFy7fqw6O0eB-75" target="s0-FrGVsxFy7fqw6O0eB-93">
          <mxGeometry relative="1" as="geometry" />
        </mxCell>
        <mxCell id="s0-FrGVsxFy7fqw6O0eB-75" value="function playround(username)" style="ellipse;whiteSpace=wrap;html=1;" vertex="1" parent="1">
          <mxGeometry x="410" y="10" width="180" height="40" as="geometry" />
        </mxCell>
        <mxCell id="s0-FrGVsxFy7fqw6O0eB-76" style="edgeStyle=orthogonalEdgeStyle;rounded=0;orthogonalLoop=1;jettySize=auto;html=1;exitX=0.5;exitY=1;exitDx=0;exitDy=0;entryX=0.5;entryY=0;entryDx=0;entryDy=0;" edge="1" parent="1" target="s0-FrGVsxFy7fqw6O0eB-79">
          <mxGeometry relative="1" as="geometry">
            <mxPoint x="495" y="120" as="sourcePoint" />
          </mxGeometry>
        </mxCell>
        <mxCell id="s0-FrGVsxFy7fqw6O0eB-78" style="edgeStyle=orthogonalEdgeStyle;rounded=0;orthogonalLoop=1;jettySize=auto;html=1;exitX=0.5;exitY=1;exitDx=0;exitDy=0;entryX=0.5;entryY=0;entryDx=0;entryDy=0;" edge="1" parent="1" target="s0-FrGVsxFy7fqw6O0eB-81">
          <mxGeometry relative="1" as="geometry">
            <mxPoint x="495" y="190" as="sourcePoint" />
          </mxGeometry>
        </mxCell>
        <mxCell id="s0-FrGVsxFy7fqw6O0eB-80" style="edgeStyle=orthogonalEdgeStyle;rounded=0;orthogonalLoop=1;jettySize=auto;html=1;exitX=0.5;exitY=1;exitDx=0;exitDy=0;entryX=0.5;entryY=0;entryDx=0;entryDy=0;" edge="1" parent="1" target="s0-FrGVsxFy7fqw6O0eB-83">
          <mxGeometry relative="1" as="geometry">
            <mxPoint x="495" y="259.9999999999999" as="sourcePoint" />
          </mxGeometry>
        </mxCell>
        <mxCell id="s0-FrGVsxFy7fqw6O0eB-82" style="edgeStyle=orthogonalEdgeStyle;rounded=0;orthogonalLoop=1;jettySize=auto;html=1;exitX=0.5;exitY=1;exitDx=0;exitDy=0;entryX=0.5;entryY=0;entryDx=0;entryDy=0;" edge="1" parent="1" target="s0-FrGVsxFy7fqw6O0eB-88">
          <mxGeometry relative="1" as="geometry">
            <mxPoint x="520" y="430" as="sourcePoint" />
          </mxGeometry>
        </mxCell>
        <mxCell id="s0-FrGVsxFy7fqw6O0eB-86" value="endfunction" style="ellipse;whiteSpace=wrap;html=1;" vertex="1" parent="1">
          <mxGeometry x="440" y="577" width="120" height="40" as="geometry" />
        </mxCell>
        <mxCell id="s0-FrGVsxFy7fqw6O0eB-87" style="edgeStyle=orthogonalEdgeStyle;rounded=0;orthogonalLoop=1;jettySize=auto;html=1;exitX=0.5;exitY=1;exitDx=0;exitDy=0;entryX=0.5;entryY=0;entryDx=0;entryDy=0;" edge="1" parent="1" target="s0-FrGVsxFy7fqw6O0eB-85">
          <mxGeometry relative="1" as="geometry">
            <mxPoint x="500" y="521" as="sourcePoint" />
          </mxGeometry>
        </mxCell>
        <mxCell id="s0-FrGVsxFy7fqw6O0eB-100" style="edgeStyle=orthogonalEdgeStyle;rounded=0;orthogonalLoop=1;jettySize=auto;html=1;exitX=0.5;exitY=1;exitDx=0;exitDy=0;entryX=0.5;entryY=0;entryDx=0;entryDy=0;" edge="1" parent="1" source="s0-FrGVsxFy7fqw6O0eB-93" target="s0-FrGVsxFy7fqw6O0eB-99">
          <mxGeometry relative="1" as="geometry" />
        </mxCell>
        <mxCell id="s0-FrGVsxFy7fqw6O0eB-93" value="die1 = random(1, 6)&lt;br&gt;die2 = random(1, 6)&lt;br&gt;score = die1 + die2" style="rounded=0;whiteSpace=wrap;html=1;" vertex="1" parent="1">
          <mxGeometry x="440" y="66" width="120" height="54" as="geometry" />
        </mxCell>
        <mxCell id="s0-FrGVsxFy7fqw6O0eB-111" style="edgeStyle=orthogonalEdgeStyle;rounded=0;orthogonalLoop=1;jettySize=auto;html=1;exitX=0.5;exitY=1;exitDx=0;exitDy=0;entryX=0.5;entryY=0;entryDx=0;entryDy=0;" edge="1" parent="1" source="s0-FrGVsxFy7fqw6O0eB-99" target="s0-FrGVsxFy7fqw6O0eB-110">
          <mxGeometry relative="1" as="geometry" />
        </mxCell>
        <mxCell id="s0-FrGVsxFy7fqw6O0eB-99" value="Output username + &quot; rolled a &quot; + str(die1) + &quot; and a &quot; + str(die2)" style="shape=parallelogram;perimeter=parallelogramPerimeter;whiteSpace=wrap;html=1;fixedSize=1;spacingLeft=4;" vertex="1" parent="1">
          <mxGeometry x="400" y="130" width="200" height="60" as="geometry" />
        </mxCell>
        <mxCell id="s0-FrGVsxFy7fqw6O0eB-114" style="edgeStyle=orthogonalEdgeStyle;rounded=0;orthogonalLoop=1;jettySize=auto;html=1;exitX=1;exitY=0.5;exitDx=0;exitDy=0;" edge="1" parent="1" source="s0-FrGVsxFy7fqw6O0eB-110" target="s0-FrGVsxFy7fqw6O0eB-112">
          <mxGeometry relative="1" as="geometry" />
        </mxCell>
        <mxCell id="s0-FrGVsxFy7fqw6O0eB-110" value="die1 == die2" style="rhombus;whiteSpace=wrap;html=1;" vertex="1" parent="1">
          <mxGeometry x="440" y="200" width="110" height="60" as="geometry" />
        </mxCell>
        <mxCell id="s0-FrGVsxFy7fqw6O0eB-112" value="die3 =&amp;nbsp;" style="rounded=0;whiteSpace=wrap;html=1;" vertex="1" parent="1">
          <mxGeometry x="530" y="250" width="120" height="60" as="geometry" />
        </mxCell>
      </root>
    </mxGraphModel>
  </diagram>
</mxfile>
